<?xml version="1.0" standalone="no"?>
<!DOCTYPE svg PUBLIC "-//W3C//DTD SVG 20010904//EN"
 "http://www.w3.org/TR/2001/REC-SVG-20010904/DTD/svg10.dtd">
<svg version="1.0" xmlns="http://www.w3.org/2000/svg"
 width="1024.000000pt" height="1024.000000pt" viewBox="0 0 1024.000000 1024.000000"
 preserveAspectRatio="xMidYMid meet">
<metadata>
Created by potrace 1.14, written by Peter Selinger 2001-2017
</metadata>
<g transform="translate(0.000000,1024.000000) scale(0.100000,-0.100000)"
fill="#000000" stroke="none">
<path d="M1975 9904 c-55 -8 -113 -16 -130 -18 -16 -2 -43 -9 -58 -15 -16 -6
-32 -9 -37 -6 -4 3 -25 -2 -46 -11 -22 -9 -41 -16 -44 -15 -17 3 -158 -43
-256 -83 -134 -55 -363 -177 -372 -198 -2 -5 -8 -8 -13 -8 -9 0 -147 -98 -175
-124 -7 -6 -29 -24 -49 -41 -40 -32 -167 -157 -225 -221 -86 -94 -183 -230
-262 -364 -75 -129 -184 -380 -171 -394 4 -3 2 -6 -4 -6 -9 0 -20 -36 -24 -75
0 -5 -4 -14 -9 -20 -4 -5 -12 -28 -16 -50 -10 -51 -11 -54 -14 -60 -1 -3 -4
-9 -5 -15 -1 -5 -4 -13 -5 -17 -1 -5 -1 -18 0 -30 1 -13 -3 -23 -8 -23 -5 0
-8 -10 -7 -22 1 -13 0 -27 -3 -32 -3 -5 -6 -23 -8 -40 -2 -17 -8 -69 -13 -116
-10 -95 -10 -5561 1 -5596 3 -12 9 -45 13 -74 8 -64 11 -81 25 -141 6 -26 13
-53 14 -60 4 -22 26 -103 33 -119 3 -8 7 -22 8 -30 10 -68 133 -342 202 -452
13 -21 23 -40 23 -43 0 -3 5 -11 10 -18 6 -7 26 -37 46 -67 129 -194 315 -387
524 -543 41 -31 82 -62 90 -69 8 -7 15 -11 15 -9 0 3 26 -12 59 -33 132 -84
382 -196 516 -231 8 -3 49 -13 90 -25 83 -22 218 -47 313 -58 85 -10 5853 -9
5949 1 43 4 83 9 90 12 14 5 91 16 126 18 12 1 22 5 22 10 0 4 11 7 25 7 14 0
41 6 60 14 18 8 36 12 39 9 2 -3 11 -1 18 3 7 5 19 9 26 10 8 2 21 6 30 10 9
4 25 9 35 11 49 9 280 113 382 171 94 54 255 164 255 173 0 5 5 9 12 9 6 0 18
7 27 15 9 8 39 34 66 57 79 68 275 269 275 284 0 3 13 19 30 37 16 18 30 35
30 39 0 4 10 18 23 32 12 13 29 37 37 53 8 15 18 30 21 33 12 10 89 147 89
157 0 6 4 13 9 15 5 2 11 10 13 18 2 8 9 21 16 28 6 7 12 22 12 32 0 10 4 20
8 22 9 3 100 231 107 266 2 12 7 27 10 32 3 5 8 19 11 30 2 11 6 29 9 41 2 11
7 29 10 39 6 18 11 40 20 90 2 14 9 50 15 80 6 30 14 87 18 125 9 95 9 5522 0
5610 -4 39 -10 81 -13 95 -2 14 -6 41 -9 60 -3 19 -9 50 -15 68 -5 17 -8 32
-6 32 2 0 -2 18 -10 41 -8 22 -14 43 -13 47 2 10 -14 66 -22 77 -4 6 -10 24
-13 40 -3 17 -11 44 -18 60 -7 17 -13 32 -14 35 -1 5 -16 37 -43 100 -9 19
-17 41 -18 49 -2 8 -9 18 -16 22 -7 5 -10 9 -5 9 4 0 -7 26 -24 58 -156 283
-340 509 -559 688 -47 38 -87 71 -90 74 -8 10 -183 124 -210 137 -14 7 -47 26
-75 42 -27 16 -66 35 -85 42 -19 6 -43 18 -53 27 -9 8 -17 12 -17 7 0 -4 -6
-3 -12 2 -7 6 -53 25 -103 43 -49 18 -97 35 -105 38 -8 3 -24 7 -35 9 -11 2
-27 6 -35 10 -18 7 -38 13 -66 17 -11 2 -25 5 -30 8 -5 4 -27 9 -49 12 -22 3
-62 10 -90 16 -27 5 -70 13 -95 17 -25 4 -1363 8 -2975 9 -2480 2 -2945 0
-3030 -12z"/>
</g>
</svg>
