<svg width="25" height="25" viewBox="0 0 25 25" fill="none" xmlns="http://www.w3.org/2000/svg">
<circle cx="12.5" cy="12.5" r="12.5" fill="white"/>
<path d="M15.362 14.6693C14.8712 14.5664 14.4197 14.3759 14.0212 14.1044C13.828 13.968 13.5531 13.9842 13.3502 14.1281L12.1875 14.7374C11.3615 13.8725 10.9503 12.9574 10.796 11.6385L11.7951 10.7451C12.0258 10.5846 12.1787 10.3108 12.1942 10.0276C12.217 9.45902 12.323 8.87957 12.5093 8.30598C12.6411 7.90053 12.4664 7.51153 12.1201 7.43893L10.6544 7.13168C10.3081 7.05908 9.91912 7.32993 9.78739 7.73538C8.25053 12.4658 10.2877 17.004 14.3283 17.851C14.6747 17.9236 15.0637 17.6527 15.1954 17.2473L15.7513 15.5363C15.883 15.1309 15.7084 14.7419 15.362 14.6693Z" fill="#FF7B5B"/>
</svg>
