<svg width="56" height="50" viewBox="0 0 56 50" fill="none" xmlns="http://www.w3.org/2000/svg">
<rect width="50" height="50" rx="19" fill="#7752BE"/>
<path d="M30.8861 27.5982L21.7432 18.4554C21.6361 18.3393 21.4932 18.2857 21.3414 18.2857C21.27 18.2857 21.1897 18.3036 21.1272 18.3304C20.9129 18.4196 20.77 18.625 20.77 18.8571V32.2857C20.77 32.5179 20.9129 32.7232 21.1272 32.8125C21.1897 32.8393 21.27 32.8571 21.3414 32.8571C21.4932 32.8571 21.6361 32.7946 21.7432 32.6875L24.5289 29.9018L26.2343 33.9375C26.3593 34.2232 26.6897 34.3661 26.9843 34.2411L28.5647 33.5714C28.8504 33.4464 28.9932 33.1161 28.8682 32.8214L27.0736 28.5714H30.4843C30.7164 28.5714 30.9218 28.4286 31.0111 28.2143C31.1004 28.0089 31.0557 27.7589 30.8861 27.5982Z" fill="white"/>
</svg>
