<svg width="14" height="16" viewBox="0 0 14 16" fill="none" xmlns="http://www.w3.org/2000/svg">
<path d="M12.1599 4.93803C11.9337 4.93803 11.7184 4.98522 11.5228 5.07001C11.2851 4.46923 10.7019 4.04332 10.0215 4.04332C9.76869 4.04332 9.52928 4.10215 9.31606 4.20677C9.04621 3.68652 8.50539 3.33027 7.88317 3.33027C7.70027 3.33027 7.52465 3.36146 7.36056 3.41819V1.62699C7.36061 0.729913 6.63576 0 5.74472 0C4.85378 0 4.12899 0.729913 4.12899 1.62699V8.07241L2.96524 6.74102C2.95711 6.73191 2.94881 6.72297 2.94019 6.71441C2.63463 6.40863 2.22795 6.23909 1.79509 6.23699C1.79229 6.23699 1.78965 6.23699 1.78685 6.23699C1.35501 6.23699 0.950697 6.40373 0.647667 6.70697C0.113364 7.24144 0.0837882 8.03476 0.566751 8.88384C1.19194 9.98229 1.87153 11.018 2.47118 11.932C2.90938 12.5999 3.32333 13.2307 3.62593 13.7523C3.88834 14.2049 4.58491 15.6729 4.59202 15.6877C4.68241 15.8785 4.87468 16.0001 5.08565 16.0001H11.9958C12.2332 16.0001 12.4434 15.8469 12.5162 15.6211C12.645 15.2203 13.7756 11.667 13.7756 10.2947V6.56518C13.7755 5.66789 13.0508 4.93803 12.1599 4.93803ZM11.6373 6.56513C11.6373 6.27055 11.8717 6.03093 12.1599 6.03093C12.4481 6.03093 12.6826 6.27055 12.6826 6.56513V10.2946C12.6826 11.2066 11.9817 13.6583 11.595 14.9071H5.43027C5.20368 14.4356 4.77901 13.5622 4.57133 13.204C4.25365 12.6562 3.83167 12.0132 3.38496 11.3323C2.7942 10.4321 2.12473 9.41162 1.51662 8.34334C1.35792 8.06423 1.21246 7.68793 1.42073 7.47966C1.51786 7.38231 1.64866 7.33146 1.78981 7.32995C1.92756 7.33065 2.05712 7.38258 2.15641 7.47654L4.2641 9.88758C4.41386 10.0591 4.65456 10.1196 4.86757 10.0396C5.0808 9.9595 5.222 9.7556 5.222 9.52793V1.62699C5.222 1.33247 5.4565 1.09296 5.74477 1.09296C6.03309 1.09296 6.26765 1.33247 6.26765 1.62699V6.72927C6.26765 7.03107 6.51239 7.27575 6.81413 7.27575C7.11587 7.27575 7.36061 7.03107 7.36061 6.72927V4.9571C7.36061 4.66274 7.59506 4.42328 7.88322 4.42328C8.17149 4.42328 8.40594 4.66274 8.40594 4.9571V7.44206C8.40594 7.74401 8.65063 7.98859 8.95237 7.98859C9.25416 7.98859 9.4989 7.74406 9.4989 7.44206V5.67031C9.4989 5.37579 9.73335 5.13622 10.0215 5.13622C10.3098 5.13622 10.5444 5.37579 10.5444 5.67031V8.15543C10.5444 8.45717 10.7891 8.70196 11.0909 8.70196C11.3927 8.70196 11.6374 8.45717 11.6374 8.15543V6.56513H11.6373Z" fill="black"/>
</svg>
